<?xml version="1.0" encoding="UTF-8" standalone="no"?>
<!-- Created with Inkscape (http://www.inkscape.org/) -->

<svg
   width="100mm"
   height="100mm"
   viewBox="0 0 100 100"
   version="1.1"
   id="svg5"
   xml:space="preserve"
   inkscape:version="1.2.2 (732a01da63, 2022-12-09)"
   sodipodi:docname="chariot_white.svg"
   xmlns:inkscape="http://www.inkscape.org/namespaces/inkscape"
   xmlns:sodipodi="http://sodipodi.sourceforge.net/DTD/sodipodi-0.dtd"
   xmlns="http://www.w3.org/2000/svg"
   xmlns:svg="http://www.w3.org/2000/svg"><sodipodi:namedview
     id="namedview7"
     pagecolor="#ffffff"
     bordercolor="#000000"
     borderopacity="0.25"
     inkscape:showpageshadow="2"
     inkscape:pageopacity="0.0"
     inkscape:pagecheckerboard="0"
     inkscape:deskcolor="#d1d1d1"
     inkscape:document-units="mm"
     showgrid="false"
     inkscape:zoom="1.3070417"
     inkscape:cx="174.05719"
     inkscape:cy="188.97638"
     inkscape:window-width="1366"
     inkscape:window-height="697"
     inkscape:window-x="-8"
     inkscape:window-y="-8"
     inkscape:window-maximized="1"
     inkscape:current-layer="layer1" /><defs
     id="defs2" /><g
     inkscape:label="Layer 1"
     inkscape:groupmode="layer"
     id="layer1"><g
       id="g1039"
       style="fill:#f4eed7;stroke:#1a1a1a;stroke-width:0.52866939;stroke-linecap:butt;stroke-dasharray:none;stroke-opacity:1"
       transform="matrix(0.94577067,0,0,0.94577067,0.06565186,0.72516425)"><path
         style="fill:#f4eed7;fill-opacity:1;stroke:#1a1a1a;stroke-width:0.52866939;stroke-linecap:butt;stroke-dasharray:none;stroke-opacity:1"
         d="M 36.634604,72.154012 C 33.337081,68.812825 31.085365,64.407026 30.19889,59.56164 l -0.440088,-2.405471 -6.411685,-0.07894 c -5.979005,-0.07361 -6.451207,-0.114588 -6.997346,-0.607113 -0.819677,-0.739211 -1.060828,-1.515974 -1.098154,-3.537208 -0.04176,-2.261344 0.484067,-3.326298 1.977063,-4.004141 0.946631,-0.429786 1.757176,-0.502446 5.660294,-0.507416 l 4.555451,-0.0058 V 37.153157 25.89076 l -0.935016,-1.141065 c -1.767811,-2.157376 -2.3387,-3.825054 -2.453247,-7.166408 -0.05602,-1.634268 -0.02538,-3.276121 0.06809,-3.648559 0.370486,-1.476132 -0.50003,-1.43461 30.076815,-1.43461 19.880231,0 28.339526,0.08558 28.933712,0.292716 1.181362,0.411823 1.615888,1.420616 1.615888,3.751428 0,3.586967 -0.749138,5.976379 -2.523746,8.04961 l -0.909347,1.062369 -0.0052,15.010811 c -0.003,8.513115 -0.118999,15.81101 -0.268053,16.859402 -1.038305,7.303016 -4.480134,13.047492 -9.583949,16.707143 -5.455916,2.99647 -11.810464,5.435855 -18.35272,4.912895 -6.542256,-0.522961 -13.129081,-3.865128 -16.473048,-6.99248 z m 23.480661,3.048415 c 7.767318,-1.734447 14.175408,-8.043677 16.090878,-15.842643 0.68447,-2.786852 0.618306,-7.835824 -0.138068,-10.536202 -2.1882,-7.81223 -9.224779,-13.82111 -17.805991,-15.20541 -9.761855,-1.574755 -20.037613,5.048131 -23.163785,14.929424 -0.910817,2.878939 -1.035557,7.977198 -0.271504,11.096528 2.774198,11.325951 13.817048,18.119876 25.28847,15.558303 z m -9.827567,-1.455452 c -3.733304,-1.259795 -7.79048,-3.690034 -7.79048,-4.666482 0,-0.520043 7.75331,-8.029712 9.679513,-9.375344 2.729592,-1.906873 2.780293,-1.790309 2.939504,6.757945 0.09353,5.021472 0.04369,7.100063 -0.180235,7.518485 -0.435912,0.814507 -1.733402,0.749022 -4.648302,-0.234604 z m 6.21383,0.340768 c -0.537258,-0.438369 -0.554777,-0.671748 -0.574417,-7.652076 -0.0257,-9.133652 0.07892,-9.337242 3.187043,-6.202351 0.972044,0.980413 3.326696,3.208622 5.232565,4.951577 1.905871,1.742955 3.551543,3.458778 3.65705,3.812939 0.157101,0.527349 0.03272,0.776761 -0.687039,1.377642 -1.306981,1.091114 -4.079119,2.461977 -6.465669,3.197361 -3.155084,0.972199 -3.708754,1.037745 -4.349533,0.514908 z M 41.118606,68.155839 c -1.593483,-1.24288 -3.840302,-5.822241 -4.549474,-9.272521 -0.433521,-2.109167 -0.381723,-2.942741 0.194311,-3.126988 0.625799,-0.200164 13.269913,0.307991 13.824798,0.555605 0.614009,0.274 0.940435,1.935276 0.574589,2.924253 -0.37938,1.02556 -8.741732,9.249756 -9.405141,9.249756 -0.118721,0 -0.406311,-0.148547 -0.639083,-0.330105 z M 68.38367,67.660214 c -0.504948,-0.307819 -1.752745,-1.398702 -2.772884,-2.424186 -1.020141,-1.025481 -2.904597,-2.809712 -4.187684,-3.964959 -2.768763,-2.49289 -3.03764,-2.947575 -2.43369,-4.115481 0.689481,-1.33331 1.265015,-1.434724 7.803542,-1.375041 5.918359,0.05402 7.48274,0.246924 7.754937,0.956262 0.203997,0.531601 -0.253333,3.105555 -0.893661,5.029745 -0.851382,2.55841 -3.308791,6.45696 -4.068405,6.454319 -0.15624,-5.29e-4 -0.697211,-0.252839 -1.202155,-0.560659 z M 53.95379,57.154468 c -1.479756,-0.902322 -1.40198,-2.886819 0.149047,-3.803032 0.927943,-0.548149 1.659966,-0.564839 2.636034,-0.0601 1.600407,0.827606 1.463794,3.087275 -0.23991,3.968297 -1.013484,0.524091 -1.549547,0.501941 -2.545171,-0.105169 z M 36.436966,54.638017 c -0.811625,-0.977952 0.993157,-7.62043 2.96424,-10.909848 0.853636,-1.42458 1.473138,-1.84614 2.153477,-1.465402 0.710471,0.397597 9.914189,10.126343 10.317271,10.905822 0.488221,0.944111 0.488442,0.92702 -0.01862,1.434077 -0.594888,0.594889 -14.924728,0.627747 -15.416373,0.03535 z m 23.504189,0.10746 c -1.44444,-0.302764 -1.984505,-0.796018 -1.773837,-1.620079 0.08669,-0.339097 2.152047,-2.481395 4.589688,-4.760657 5.048124,-4.720141 6.613863,-6.01691 7.269322,-6.020557 0.970805,-0.0054 3.462142,4.383843 4.294931,7.566828 0.221823,0.847831 0.417013,2.115709 0.433756,2.817511 0.05124,2.148006 0.129568,2.124202 -7.233641,2.198441 -3.523426,0.03552 -6.934523,-0.04614 -7.580219,-0.181487 z M 47.646857,47.053416 c -3.050171,-2.918821 -5.586725,-5.48331 -5.63679,-5.698864 -0.320247,-1.378867 5.315482,-4.664546 9.610836,-5.603201 2.684121,-0.586557 3.145032,-0.462015 3.404273,0.919858 0.243563,1.298306 -0.128735,14.670166 -0.424406,15.243459 -0.546137,1.058927 -1.366939,0.48513 -6.953913,-4.861252 z m 8.590307,4.72921 c -0.590096,-1.430058 -0.803674,-5.070573 -0.506685,-8.636619 0.163529,-1.963506 0.238989,-4.29672 0.167693,-5.184921 -0.168979,-2.10511 0.05924,-2.485653 1.490676,-2.485653 4.033573,0 10.98861,3.561726 10.98861,5.627349 0,0.944518 -1.819098,3.119671 -4.238457,5.068057 -1.082135,0.871478 -3.018907,2.624336 -4.303937,3.89524 -2.413504,2.386977 -3.171941,2.748825 -3.5979,1.716547 z"
         id="path302"
         sodipodi:nodetypes="cscssssscccsscssssccscscssssssssssssssssssssssssssssssssssssssssssssssssssssssssssssssssssssssss" /><rect
         style="fill:#f4eed7;fill-opacity:1;stroke:#1a1a1a;stroke-width:0.52866939;stroke-linecap:butt;stroke-dasharray:none;stroke-opacity:1"
         id="rect1035"
         width="56.781376"
         height="9.3117409"
         x="25.40486"
         y="82.388664"
         ry="2.4291499" /></g></g></svg>
