<?xml version="1.0" encoding="UTF-8" standalone="no"?>
<!-- Created with Inkscape (http://www.inkscape.org/) -->

<svg
   width="100mm"
   height="100mm"
   viewBox="0 0 100 100"
   version="1.1"
   id="svg5"
   xml:space="preserve"
   inkscape:version="1.2.2 (732a01da63, 2022-12-09)"
   sodipodi:docname="elephant_black.svg"
   xmlns:inkscape="http://www.inkscape.org/namespaces/inkscape"
   xmlns:sodipodi="http://sodipodi.sourceforge.net/DTD/sodipodi-0.dtd"
   xmlns="http://www.w3.org/2000/svg"
   xmlns:svg="http://www.w3.org/2000/svg"><sodipodi:namedview
     id="namedview7"
     pagecolor="#ffffff"
     bordercolor="#000000"
     borderopacity="0.25"
     inkscape:showpageshadow="2"
     inkscape:pageopacity="0.0"
     inkscape:pagecheckerboard="0"
     inkscape:deskcolor="#d1d1d1"
     inkscape:document-units="mm"
     showgrid="false"
     inkscape:zoom="0.92421805"
     inkscape:cx="-12.442951"
     inkscape:cy="157.97138"
     inkscape:window-width="1366"
     inkscape:window-height="697"
     inkscape:window-x="-8"
     inkscape:window-y="-8"
     inkscape:window-maximized="1"
     inkscape:current-layer="layer1" /><defs
     id="defs2" /><g
     inkscape:label="Layer 1"
     inkscape:groupmode="layer"
     id="layer1"><path
       style="fill:#1a1a1a;stroke:#1a1a1a;stroke-width:1;stroke-opacity:1;stroke-dasharray:none;fill-opacity:1"
       d="m 27.129323,87.064522 c -0.9993,-0.619672 -1.205351,-1.512239 -1.205351,-5.221294 0,-3.781212 0.297974,-4.699307 1.783816,-5.496172 0.817076,-0.438203 2.137578,-0.461579 26.074569,-0.461579 27.477251,0 26.011537,-0.07647 27.187359,1.418351 0.484342,0.615742 0.527513,0.996931 0.527513,4.657592 0,2.192832 -0.0706,4.170975 -0.156915,4.395877 -0.448654,1.169178 0.05134,1.148467 -27.554017,1.141321 -23.944198,-0.0062 -26.021488,-0.04003 -26.656974,-0.434096 z M 37.594356,73.561505 C 37.367688,73.334836 37.29123,70.427632 37.29123,62.035659 V 50.81294 l -1.073574,0.166316 c -2.913464,0.451345 -6.837434,3.632803 -8.408719,6.817585 -1.342024,2.720102 -1.488359,5.462051 -0.356347,6.677122 0.444662,0.477289 0.784377,0.549976 2.586067,0.553336 2.296496,0.0043 2.56493,0.09828 2.915769,1.021057 0.500786,1.317172 -0.826788,3.543048 -2.620974,4.394443 -2.629938,1.247988 -7.846988,-0.500109 -9.765662,-3.27222 -1.849428,-2.672058 -2.298144,-7.147433 -1.962851,-19.576942 0.214173,-7.939382 0.616339,-12.074849 1.547627,-15.91416 2.606091,-10.743813 11.005498,-18.661045 20.30084,-19.135457 3.369975,-0.171994 5.546821,0.225886 8.205081,1.499706 1.73216,0.830039 2.538809,1.425388 4.17359,3.080334 3.487868,3.530883 5.104287,7.789674 4.851881,12.783282 -0.300518,5.945502 -3.020023,10.728591 -8.403656,14.78043 -1.862132,1.401482 -2.252397,1.895442 -1.497538,1.895442 1.016631,0 3.172801,-1.475192 5.305644,-3.629979 3.92538,-3.965763 5.713841,-8.270041 5.733925,-13.799815 0.01303,-3.590058 -0.446422,-5.595239 -2.025857,-8.8412 -0.963893,-1.980934 -1.533461,-2.766616 -3.263505,-4.501795 -3.385611,-3.395658 -3.380154,-3.398813 5.659756,-3.273518 6.798372,0.09423 7.086176,0.118727 9.042703,0.769791 5.861043,1.950356 10.39039,6.684518 12.140181,12.689151 0.40199,1.379495 0.451211,3.53503 0.547949,23.997542 0.07284,15.408244 0.02241,22.701509 -0.16023,23.179853 l -0.266513,0.697945 -8.783052,-0.06643 -8.783055,-0.06643 -0.126303,-4.294297 c -0.105233,-3.577904 -0.202102,-4.405923 -0.580677,-4.963417 -1.397284,-2.057667 -4.773145,-1.265577 -5.48205,1.286273 -0.137278,0.494166 -0.250233,2.449319 -0.251006,4.344783 -0.0013,2.908692 -0.06374,3.470222 -0.400979,3.599632 -0.219762,0.08433 -4.402912,0.153329 -9.29589,0.153329 -6.582554,0 -8.97516,-0.07884 -9.199449,-0.303127 z M 32.364208,36.879649 c -0.804332,-0.804332 -1.014621,-1.743594 -0.657353,-2.936052 0.582617,-1.944598 2.772295,-2.667872 4.244109,-1.40187 0.621547,0.53463 0.708752,0.785826 0.708752,2.041567 0,1.298049 -0.07713,1.500836 -0.824955,2.169018 -1.084336,0.968855 -2.574363,1.023526 -3.470553,0.127337 z m 2.389426,-1.523486 c 0.747652,-0.900864 -0.253231,-2.126894 -1.137323,-1.393163 -0.376647,0.312589 -0.498555,1.28958 -0.198368,1.589764 0.290938,0.290941 1.020146,0.183609 1.335691,-0.196601 z"
       id="path247"
       sodipodi:nodetypes="sssssscsssscssscsssssssssssssssssssccccssscsssssssssssss" /><path
       style="fill:none;fill-opacity:1;stroke:#ffffff;stroke-width:0.607413;stroke-dasharray:none;stroke-opacity:1"
       id="path3021"
       sodipodi:type="arc"
       sodipodi:cx="34.095184"
       sodipodi:cy="34.764893"
       sodipodi:rx="0.96067047"
       sodipodi:ry="1.1128231"
       sodipodi:start="0"
       sodipodi:end="6.274511"
       sodipodi:open="true"
       sodipodi:arc-type="arc"
       d="m 35.055855,34.764893 a 0.96067047,1.1128231 0 0 1 -0.958587,1.11282 0.96067047,1.1128231 0 0 1 -0.962745,-1.107994 0.96067047,1.1128231 0 0 1 0.954412,-1.117626 0.96067047,1.1128231 0 0 1 0.966884,1.103147" /><path
       style="fill:none;fill-opacity:1;stroke:#ffffff;stroke-width:1.06751;stroke-dasharray:none;stroke-opacity:1"
       id="path3075"
       sodipodi:type="arc"
       sodipodi:cx="34.102875"
       sodipodi:cy="34.692112"
       sodipodi:rx="2.5785334"
       sodipodi:ry="2.5976336"
       sodipodi:start="0"
       sodipodi:end="6.274511"
       sodipodi:open="true"
       sodipodi:arc-type="arc"
       d="m 36.681408,34.692112 a 2.5785334,2.5976336 0 0 1 -2.572942,2.597627 2.5785334,2.5976336 0 0 1 -2.5841,-2.586361 2.5785334,2.5976336 0 0 1 2.561734,-2.608845 2.5785334,2.5976336 0 0 1 2.595211,2.575047" /></g></svg>
