<?xml version="1.0" encoding="UTF-8" standalone="no"?>
<!-- Created with Inkscape (http://www.inkscape.org/) -->

<svg
   width="324"
   height="324"
   viewBox="0 0 85.725 85.724999"
   version="1.1"
   id="svg5"
   xml:space="preserve"
   inkscape:version="1.2.2 (732a01da63, 2022-12-09)"
   sodipodi:docname="pawn_black.svg"
   xmlns:inkscape="http://www.inkscape.org/namespaces/inkscape"
   xmlns:sodipodi="http://sodipodi.sourceforge.net/DTD/sodipodi-0.dtd"
   xmlns="http://www.w3.org/2000/svg"
   xmlns:svg="http://www.w3.org/2000/svg"><sodipodi:namedview
     id="namedview7"
     pagecolor="#ffffff"
     bordercolor="#000000"
     borderopacity="0.25"
     inkscape:showpageshadow="2"
     inkscape:pageopacity="0.0"
     inkscape:pagecheckerboard="0"
     inkscape:deskcolor="#d1d1d1"
     inkscape:document-units="mm"
     showgrid="false"
     inkscape:zoom="1.5246914"
     inkscape:cx="25.906882"
     inkscape:cy="163.31174"
     inkscape:window-width="1366"
     inkscape:window-height="697"
     inkscape:window-x="-8"
     inkscape:window-y="-8"
     inkscape:window-maximized="1"
     inkscape:current-layer="layer1" /><defs
     id="defs2" /><g
     inkscape:label="Layer 1"
     inkscape:groupmode="layer"
     id="layer1"><path
       style="fill:#1a1a1a;fill-opacity:1;stroke:#1a1a1a;stroke-width:1.36645;stroke-dasharray:none;stroke-opacity:1"
       d="m 24.627266,73.993765 c -0.942199,-0.368184 -1.083679,-0.87523 -1.083679,-3.883756 0,-3.124106 0.142768,-3.595997 1.291745,-4.269576 0.60219,-0.35303 1.388892,-0.371705 17.802384,-0.422634 16.819649,-0.05219 17.189523,-0.04523 18.008431,0.33864 1.36864,0.641564 1.535265,1.10956 1.535265,4.312089 0,1.527996 -0.09356,2.943308 -0.208288,3.150895 -0.549087,0.993481 -0.06881,0.969501 -19.151151,0.956161 -9.768656,-0.0069 -17.956275,-0.08865 -18.194707,-0.181819 z m 1.384287,-10.814547 c -0.133513,-0.129285 -0.242751,-0.466062 -0.242751,-0.748393 0,-0.396434 0.298767,-0.745163 1.312001,-1.531406 2.348647,-1.822483 5.47911,-5.746773 7.135126,-8.944458 1.599063,-3.087709 2.820576,-7.181018 3.378808,-11.32244 0.495169,-3.673545 0.599721,-3.391835 -1.305751,-3.518303 -1.035897,-0.06875 -1.854069,-0.238881 -2.275789,-0.473216 -0.758796,-0.421637 -1.56875,-1.819554 -1.56875,-2.707536 0,-0.331424 0.204821,-0.993515 0.455157,-1.471313 0.597013,-1.139473 1.729819,-1.699848 4.057608,-2.007214 1.696081,-0.223954 1.758295,-0.25015 1.758295,-0.740353 0,-0.391075 -0.191398,-0.612348 -0.830573,-0.960207 -2.760317,-1.502254 -4.466538,-4.398323 -4.507849,-7.651435 -0.028,-2.20462 0.328849,-3.4423 1.488358,-5.162238 2.30524,-3.419441 6.637728,-5.141878 10.256382,-4.077554 4.777345,1.405119 7.986588,6.103157 7.201358,10.542124 -0.277951,1.571297 -1.384372,3.872591 -2.369527,4.928509 -0.407166,0.436412 -1.190655,1.073315 -1.741087,1.41534 -0.714359,0.443886 -1.000785,0.748434 -1.000785,1.064107 0,0.399377 0.12483,0.454627 1.287806,0.570006 2.864238,0.284155 4.313191,1.07966 4.79339,2.631668 0.331325,1.070829 -0.0049,2.223742 -0.901909,3.092306 -0.758147,0.734137 -1.795237,1.05576 -3.409229,1.057276 l -1.163182,0.0011 10e-4,0.832513 c 0.0022,1.604375 0.824894,6.244713 1.528501,8.620467 0.863885,2.91694 2.623272,6.499136 4.311925,8.779281 1.099361,1.484441 3.708862,4.125278 5.942005,6.013358 0.814301,0.688478 0.948262,1.203779 0.440708,1.695258 -0.283781,0.274878 -2.108922,0.307822 -17.053155,0.307822 -12.746661,0 -16.793208,-0.05603 -16.9781,-0.235063 z"
       id="path260"
       sodipodi:nodetypes="ssssssssscssssssssssssssssssssccccssscscc" /></g></svg>
