<?xml version="1.0" encoding="UTF-8" standalone="no"?>
<!-- Created with Inkscape (http://www.inkscape.org/) -->

<svg
   width="324"
   height="324"
   viewBox="0 0 85.725 85.724999"
   version="1.1"
   id="svg5"
   xml:space="preserve"
   inkscape:version="1.2.2 (732a01da63, 2022-12-09)"
   sodipodi:docname="pawn_white.svg"
   xmlns:inkscape="http://www.inkscape.org/namespaces/inkscape"
   xmlns:sodipodi="http://sodipodi.sourceforge.net/DTD/sodipodi-0.dtd"
   xmlns="http://www.w3.org/2000/svg"
   xmlns:svg="http://www.w3.org/2000/svg"><sodipodi:namedview
     id="namedview7"
     pagecolor="#ffffff"
     bordercolor="#000000"
     borderopacity="0.25"
     inkscape:showpageshadow="2"
     inkscape:pageopacity="0.0"
     inkscape:pagecheckerboard="0"
     inkscape:deskcolor="#d1d1d1"
     inkscape:document-units="mm"
     showgrid="false"
     inkscape:zoom="1.5246914"
     inkscape:cx="-23.939271"
     inkscape:cy="163.96761"
     inkscape:window-width="1366"
     inkscape:window-height="697"
     inkscape:window-x="-8"
     inkscape:window-y="-8"
     inkscape:window-maximized="1"
     inkscape:current-layer="layer1" /><defs
     id="defs2" /><g
     inkscape:label="Layer 1"
     inkscape:groupmode="layer"
     id="layer1"><path
       style="fill:#f4eed7;fill-opacity:1;stroke:#000000;stroke-width:0.45915;stroke-dasharray:none;stroke-opacity:1"
       d="m 24.362013,74.444852 c -0.955906,-0.373536 -1.099444,-0.887953 -1.099444,-3.940214 0,-3.169521 0.144846,-3.648274 1.310536,-4.331643 0.610949,-0.358162 1.409095,-0.377109 18.061342,-0.428778 17.064312,-0.05295 17.439567,-0.04589 18.270386,0.343563 1.38855,0.650892 1.557598,1.12569 1.557598,4.374774 0,1.550209 -0.09492,2.986096 -0.211318,3.1967 -0.557073,1.007923 -0.06981,0.983594 -19.429729,0.970061 -9.910754,-0.007 -18.217471,-0.08994 -18.459371,-0.184463 z m 1.404423,-10.971757 c -0.135456,-0.131165 -0.246282,-0.472837 -0.246282,-0.759274 0,-0.402196 0.303112,-0.755995 1.331085,-1.553667 2.382811,-1.848976 5.55881,-5.830315 7.238916,-9.074484 1.622322,-3.132594 2.861603,-7.285408 3.427957,-11.487034 0.502371,-3.726948 0.608443,-3.441144 -1.324745,-3.56945 -1.050964,-0.06975 -1.88104,-0.242353 -2.308892,-0.480093 -0.769834,-0.427768 -1.591569,-1.846005 -1.591569,-2.746896 0,-0.336242 0.207799,-1.007957 0.461778,-1.492702 0.605697,-1.156037 1.754979,-1.724559 4.11663,-2.036393 1.720752,-0.22721 1.783872,-0.253787 1.783872,-0.751115 0,-0.39676 -0.194184,-0.62125 -0.842656,-0.974166 -2.800468,-1.524092 -4.531509,-4.462262 -4.57342,-7.762664 -0.0284,-2.236669 0.333632,-3.492341 1.510008,-5.237282 2.338771,-3.469149 6.734283,-5.216624 10.405573,-4.136828 4.846837,1.425545 8.102764,6.191878 7.306112,10.695374 -0.281997,1.594139 -1.404509,3.928887 -2.403997,5.000155 -0.413088,0.442757 -1.207975,1.088919 -1.766412,1.435915 -0.724751,0.450339 -1.015343,0.759314 -1.015343,1.079575 0,0.405183 0.126647,0.461237 1.306539,0.578293 2.905903,0.288286 4.375932,1.095355 4.863117,2.669924 0.336142,1.086396 -0.005,2.25607 -0.915029,3.137259 -0.769174,0.744809 -1.821352,1.071108 -3.458822,1.072646 l -1.180099,0.0011 10e-4,0.844616 c 0.0022,1.627698 0.836894,6.335491 1.550736,8.745783 0.876451,2.959342 2.661429,6.593611 4.374646,8.906905 1.115353,1.506019 3.762812,4.185245 6.028439,6.100774 0.826149,0.698486 0.962056,1.221278 0.447117,1.719902 -0.287907,0.278872 -2.139599,0.312297 -17.301213,0.312297 -12.932077,0 -17.037487,-0.05684 -17.225071,-0.238481 z"
       id="path260"
       sodipodi:nodetypes="ssssssssscssssssssssssssssssssccccssscscc" /></g></svg>
